<svg width="200" height="200" viewBox="0 0 200 200" fill="none" xmlns="http://www.w3.org/2000/svg">
  <rect width="200" height="200" fill="#7C3AED" />
  <path fill-rule="evenodd" clip-rule="evenodd"
    d="M99 175C132.028 175 160.07 153.651 170.078 124H142.874C134.38 139.495 117.917 150 99 150C71.3858 150 49 127.614 49 100C49 72.3858 71.3858 50 99 50C113.484 50 126.53 56.1586 135.661 66H126.751L151 108L175.249 66H165.869C153.471 41.6664 128.182 25 99 25C57.5786 25 24 58.5786 24 100C24 141.421 57.5786 175 99 175Z"
    fill="white" />
</svg>